<svg class="main-svg" xmlns="http://www.w3.org/2000/svg" xmlns:xlink="http://www.w3.org/1999/xlink" width="64" height="64" style="" viewBox="0 0 64 64"><rect x="0" y="0" width="64" height="64" style="fill: rgb(0, 0, 0); fill-opacity: 0;"/><defs id="defs-37f015"><g class="clips"><clipPath id="clip37f015polar-for-traces"><path d="M30,0A30,30 0,1,0 -30,-3.67394039744206e-15A30,30 0,1,0 30,7.34788079488412e-15Z" transform="translate(30,30)"/></clipPath></g><g class="gradients"/><g class="patterns"/></defs><g class="bglayer"/><g class="layer-below"><g class="imagelayer"/><g class="shapelayer"/></g><g class="cartesianlayer"/><g class="polarlayer"><g class="polar"><g class="polarsublayer draglayer"/><g class="polarsublayer plotbg"><path d="M30,0A30,30 0,1,0 -30,-3.67394039744206e-15A30,30 0,1,0 30,7.34788079488412e-15Z" transform="translate(32,32)" style="fill: rgb(0, 0, 0); fill-opacity: 0;"/></g><g class="polarsublayer backplot"><g class="maplayer"/></g><g class="polarsublayer angular-grid" style="fill: none;"/><g class="polarsublayer radial-grid" display="none" style="fill: none;"/><g class="polarsublayer angular-line"><path display="none" style="fill: none; stroke: rgb(0, 0, 0); stroke-opacity: 1;"/></g><g class="polarsublayer radial-line"><line display="none" style="fill: none; stroke: rgb(0, 0, 0); stroke-opacity: 1;"/></g><g class="polarsublayer angular-axis"/><g class="polarsublayer radial-axis" display="none"/><g class="polarsublayer frontplot" transform="translate(2,2)"><g class="barlayer"/><g class="scatterlayer"><g class="trace scatter trace33c7f1" style="stroke-miterlimit: 2; opacity: 0.8;"><g class="fills" clip-path="url(#clip37f015polar-for-traces)"><g><path class="js-fill" d="M2.73,30L2.8,30.86L3.03,31.71L3.39,32.53L3.9,33.31L4.55,34.05L5.32,34.73L6.21,35.35L7.21,35.88L8.3,36.34L9.47,36.71L10.71,36.98L12,37.17L13.33,37.25L14.69,37.25L16.05,37.15L17.41,36.96L18.74,36.7L20.04,36.36L21.3,35.95L22.49,35.49L23.62,34.98L24.67,34.44L25.63,33.88L26.5,33.32L27.27,32.75L27.94,32.21L28.51,31.7L28.99,31.24L29.36,30.83L29.64,30.49L29.84,30.24L29.96,30.07L30,30L29.98,30.04L29.91,30.18L29.79,30.44L29.65,30.82L29.49,31.31L29.32,31.91L29.16,32.63L29.02,33.45L28.91,34.37L28.84,35.38L28.81,36.46L28.85,37.62L28.95,38.83L29.12,40.09L29.37,41.37L29.7,42.66L30.11,43.96L30.6,45.24L31.17,46.48L31.82,47.67L32.54,48.81L33.32,49.87L34.17,50.83L35.06,51.7L35.99,52.46L36.94,53.09L37.92,53.6L38.89,53.97L39.86,54.21L40.81,54.3L41.72,54.26L42.58,54.08L43.38,53.76L44.12,53.3L44.77,52.73L45.33,52.03L45.79,51.23L46.14,50.33L46.38,49.35L46.51,48.3L46.52,47.18L46.4,46.02L46.18,44.83L45.83,43.62L45.38,42.41L44.82,41.2L44.17,40.02L43.43,38.88L42.61,37.78L41.73,36.73L40.8,35.75L39.83,34.85L38.84,34.01L37.84,33.27L36.84,32.6L35.87,32.02L34.93,31.52L34.04,31.11L33.21,30.77L32.45,30.51L31.78,30.31L31.21,30.17L30.74,30.08L30.38,30.03L30.14,30.01L30.02,30L30.02,30L30.14,29.99L30.38,29.97L30.74,29.92L31.21,29.83L31.78,29.69L32.45,29.49L33.21,29.23L34.04,28.89L34.93,28.48L35.87,27.98L36.84,27.4L37.84,26.73L38.84,25.99L39.83,25.15L40.8,24.25L41.73,23.27L42.61,22.22L43.43,21.12L44.17,19.98L44.82,18.8L45.38,17.59L45.83,16.38L46.18,15.17L46.4,13.98L46.52,12.82L46.51,11.7L46.38,10.65L46.14,9.67L45.79,8.77L45.33,7.97L44.77,7.27L44.12,6.7L43.38,6.24L42.58,5.92L41.72,5.74L40.81,5.7L39.86,5.79L38.89,6.03L37.92,6.4L36.94,6.91L35.99,7.54L35.06,8.3L34.17,9.17L33.32,10.13L32.54,11.19L31.82,12.33L31.17,13.52L30.6,14.76L30.11,16.04L29.7,17.34L29.37,18.63L29.12,19.91L28.95,21.17L28.85,22.38L28.81,23.54L28.84,24.62L28.91,25.63L29.02,26.55L29.16,27.37L29.32,28.09L29.49,28.69L29.65,29.18L29.79,29.56L29.91,29.82L29.98,29.96L30,30L29.96,29.93L29.84,29.76L29.64,29.51L29.36,29.17L28.99,28.76L28.51,28.3L27.94,27.79L27.27,27.25L26.5,26.68L25.63,26.12L24.67,25.56L23.62,25.02L22.49,24.51L21.3,24.05L20.04,23.64L18.74,23.3L17.41,23.04L16.05,22.85L14.69,22.75L13.33,22.75L12,22.83L10.71,23.02L9.47,23.29L8.3,23.66L7.21,24.12L6.21,24.65L5.32,25.27L4.55,25.95L3.9,26.69L3.39,27.47L3.03,28.29L2.8,29.14L2.73,30Z" style="fill: rgb(38, 52, 115); fill-opacity: 1; stroke-width: 0;"/></g></g><g class="errorbars"/><g class="lines"><path class="js-line" d="M2.73,30L2.8,30.86L3.03,31.71L3.39,32.53L3.9,33.31L4.55,34.05L5.32,34.73L6.21,35.35L7.21,35.88L8.3,36.34L9.47,36.71L10.71,36.98L12,37.17L13.33,37.25L14.69,37.25L16.05,37.15L17.41,36.96L18.74,36.7L20.04,36.36L21.3,35.95L22.49,35.49L23.62,34.98L24.67,34.44L25.63,33.88L26.5,33.32L27.27,32.75L27.94,32.21L28.51,31.7L28.99,31.24L29.36,30.83L29.64,30.49L29.84,30.24L29.96,30.07L30,30L29.98,30.04L29.91,30.18L29.79,30.44L29.65,30.82L29.49,31.31L29.32,31.91L29.16,32.63L29.02,33.45L28.91,34.37L28.84,35.38L28.81,36.46L28.85,37.62L28.95,38.83L29.12,40.09L29.37,41.37L29.7,42.66L30.11,43.96L30.6,45.24L31.17,46.48L31.82,47.67L32.54,48.81L33.32,49.87L34.17,50.83L35.06,51.7L35.99,52.46L36.94,53.09L37.92,53.6L38.89,53.97L39.86,54.21L40.81,54.3L41.72,54.26L42.58,54.08L43.38,53.76L44.12,53.3L44.77,52.73L45.33,52.03L45.79,51.23L46.14,50.33L46.38,49.35L46.51,48.3L46.52,47.18L46.4,46.02L46.18,44.83L45.83,43.62L45.38,42.41L44.82,41.2L44.17,40.02L43.43,38.88L42.61,37.78L41.73,36.73L40.8,35.75L39.83,34.85L38.84,34.01L37.84,33.27L36.84,32.6L35.87,32.02L34.93,31.52L34.04,31.11L33.21,30.77L32.45,30.51L31.78,30.31L31.21,30.17L30.74,30.08L30.38,30.03L30.14,30.01L30.02,30L30.02,30L30.14,29.99L30.38,29.97L30.74,29.92L31.21,29.83L31.78,29.69L32.45,29.49L33.21,29.23L34.04,28.89L34.93,28.48L35.87,27.98L36.84,27.4L37.84,26.73L38.84,25.99L39.83,25.15L40.8,24.25L41.73,23.27L42.61,22.22L43.43,21.12L44.17,19.98L44.82,18.8L45.38,17.59L45.83,16.38L46.18,15.17L46.4,13.98L46.52,12.82L46.51,11.7L46.38,10.65L46.14,9.67L45.79,8.77L45.33,7.97L44.77,7.27L44.12,6.7L43.38,6.24L42.58,5.92L41.72,5.74L40.81,5.7L39.86,5.79L38.89,6.03L37.92,6.4L36.94,6.91L35.99,7.54L35.06,8.3L34.17,9.17L33.32,10.13L32.54,11.19L31.82,12.33L31.17,13.52L30.6,14.76L30.11,16.04L29.7,17.34L29.37,18.63L29.12,19.91L28.95,21.17L28.85,22.38L28.81,23.54L28.84,24.62L28.91,25.63L29.02,26.55L29.16,27.37L29.32,28.09L29.49,28.69L29.65,29.18L29.79,29.56L29.91,29.82L29.98,29.96L30,30L29.96,29.93L29.84,29.76L29.64,29.51L29.36,29.17L28.99,28.76L28.51,28.3L27.94,27.79L27.27,27.25L26.5,26.68L25.63,26.12L24.67,25.56L23.62,25.02L22.49,24.51L21.3,24.05L20.04,23.64L18.74,23.3L17.41,23.04L16.05,22.85L14.69,22.75L13.33,22.75L12,22.83L10.71,23.02L9.47,23.29L8.3,23.66L7.21,24.12L6.21,24.65L5.32,25.27L4.55,25.95L3.9,26.69L3.39,27.47L3.03,28.29L2.8,29.14L2.73,30" clip-path="url(#clip37f015polar-for-traces)" style="vector-effect: non-scaling-stroke; fill: none; stroke: rgb(213, 232, 245); stroke-opacity: 1; stroke-width: 2px; opacity: 1;"/></g><g class="points" clip-path="url(#clip37f015polar-for-traces)"/><g class="text" clip-path="url(#clip37f015polar-for-traces)"/></g><g class="trace scatter trace0a8081" style="stroke-miterlimit: 2; opacity: 0.8;"><g class="fills" clip-path="url(#clip37f015polar-for-traces)"><g><path class="js-fill" d="M57.27,30L57.2,29.14L56.97,28.29L56.61,27.47L56.1,26.69L55.45,25.95L54.68,25.27L53.79,24.65L52.79,24.12L51.7,23.66L50.53,23.29L49.29,23.02L48,22.83L46.67,22.75L45.31,22.75L43.95,22.85L42.59,23.04L41.26,23.3L39.96,23.64L38.7,24.05L37.51,24.51L36.38,25.02L35.33,25.56L34.37,26.12L33.5,26.68L32.73,27.25L32.06,27.79L31.49,28.3L31.01,28.76L30.64,29.17L30.36,29.51L30.16,29.76L30.04,29.93L30,30L30.02,29.96L30.09,29.82L30.21,29.56L30.35,29.18L30.51,28.69L30.68,28.09L30.84,27.37L30.98,26.55L31.09,25.63L31.16,24.62L31.19,23.54L31.15,22.38L31.05,21.17L30.88,19.91L30.63,18.63L30.3,17.34L29.89,16.04L29.4,14.76L28.83,13.52L28.18,12.33L27.46,11.19L26.68,10.13L25.83,9.17L24.94,8.3L24.01,7.54L23.06,6.91L22.08,6.4L21.11,6.03L20.14,5.79L19.19,5.7L18.28,5.74L17.42,5.92L16.62,6.24L15.88,6.7L15.23,7.27L14.67,7.97L14.21,8.77L13.86,9.67L13.62,10.65L13.49,11.7L13.48,12.82L13.6,13.98L13.82,15.17L14.17,16.38L14.62,17.59L15.18,18.8L15.83,19.98L16.57,21.12L17.39,22.22L18.27,23.27L19.2,24.25L20.17,25.15L21.16,25.99L22.16,26.73L23.16,27.4L24.13,27.98L25.07,28.48L25.96,28.89L26.79,29.23L27.55,29.49L28.22,29.69L28.79,29.83L29.26,29.92L29.62,29.97L29.86,29.99L29.98,30L29.98,30L29.86,30.01L29.62,30.03L29.26,30.08L28.79,30.17L28.22,30.31L27.55,30.51L26.79,30.77L25.96,31.11L25.07,31.52L24.13,32.02L23.16,32.6L22.16,33.27L21.16,34.01L20.17,34.85L19.2,35.75L18.27,36.73L17.39,37.78L16.57,38.88L15.83,40.02L15.18,41.2L14.62,42.41L14.17,43.62L13.82,44.83L13.6,46.02L13.48,47.18L13.49,48.3L13.62,49.35L13.86,50.33L14.21,51.23L14.67,52.03L15.23,52.73L15.88,53.3L16.62,53.76L17.42,54.08L18.28,54.26L19.19,54.3L20.14,54.21L21.11,53.97L22.08,53.6L23.06,53.09L24.01,52.46L24.94,51.7L25.83,50.83L26.68,49.87L27.46,48.81L28.18,47.67L28.83,46.48L29.4,45.24L29.89,43.96L30.3,42.66L30.63,41.37L30.88,40.09L31.05,38.83L31.15,37.62L31.19,36.46L31.16,35.38L31.09,34.37L30.98,33.45L30.84,32.63L30.68,31.91L30.51,31.31L30.35,30.82L30.21,30.44L30.09,30.18L30.02,30.04L30,30L30.04,30.07L30.16,30.24L30.36,30.49L30.64,30.83L31.01,31.24L31.49,31.7L32.06,32.21L32.73,32.75L33.5,33.32L34.37,33.88L35.33,34.44L36.38,34.98L37.51,35.49L38.7,35.95L39.96,36.36L41.26,36.7L42.59,36.96L43.95,37.15L45.31,37.25L46.67,37.25L48,37.17L49.29,36.98L50.53,36.71L51.7,36.34L52.79,35.88L53.79,35.35L54.68,34.73L55.45,34.05L56.1,33.31L56.61,32.53L56.97,31.71L57.2,30.86L57.27,30Z" style="fill: rgb(38, 52, 115); fill-opacity: 1; stroke-width: 0;"/></g></g><g class="errorbars"/><g class="lines"><path class="js-line" d="M57.27,30L57.2,29.14L56.97,28.29L56.61,27.47L56.1,26.69L55.45,25.95L54.68,25.27L53.79,24.65L52.79,24.12L51.7,23.66L50.53,23.29L49.29,23.02L48,22.83L46.67,22.75L45.31,22.75L43.95,22.85L42.59,23.04L41.26,23.3L39.96,23.64L38.7,24.05L37.51,24.51L36.38,25.02L35.33,25.56L34.37,26.12L33.5,26.68L32.73,27.25L32.06,27.79L31.49,28.3L31.01,28.76L30.64,29.17L30.36,29.51L30.16,29.76L30.04,29.93L30,30L30.02,29.96L30.09,29.82L30.21,29.56L30.35,29.18L30.51,28.69L30.68,28.09L30.84,27.37L30.98,26.55L31.09,25.63L31.16,24.62L31.19,23.54L31.15,22.38L31.05,21.17L30.88,19.91L30.63,18.63L30.3,17.34L29.89,16.04L29.4,14.76L28.83,13.52L28.18,12.33L27.46,11.19L26.68,10.13L25.83,9.17L24.94,8.3L24.01,7.54L23.06,6.91L22.08,6.4L21.11,6.03L20.14,5.79L19.19,5.7L18.28,5.74L17.42,5.92L16.62,6.24L15.88,6.7L15.23,7.27L14.67,7.97L14.21,8.77L13.86,9.67L13.62,10.65L13.49,11.7L13.48,12.82L13.6,13.98L13.82,15.17L14.17,16.38L14.62,17.59L15.18,18.8L15.83,19.98L16.57,21.12L17.39,22.22L18.27,23.27L19.2,24.25L20.17,25.15L21.16,25.99L22.16,26.73L23.16,27.4L24.13,27.98L25.07,28.48L25.96,28.89L26.79,29.23L27.55,29.49L28.22,29.69L28.79,29.83L29.26,29.92L29.62,29.97L29.86,29.99L29.98,30L29.98,30L29.86,30.01L29.62,30.03L29.26,30.08L28.79,30.17L28.22,30.31L27.55,30.51L26.79,30.77L25.96,31.11L25.07,31.52L24.13,32.02L23.16,32.6L22.16,33.27L21.16,34.01L20.17,34.85L19.2,35.75L18.27,36.73L17.39,37.78L16.57,38.88L15.83,40.02L15.18,41.2L14.62,42.41L14.17,43.62L13.82,44.83L13.6,46.02L13.48,47.18L13.49,48.3L13.62,49.35L13.86,50.33L14.21,51.23L14.67,52.03L15.23,52.73L15.88,53.3L16.62,53.76L17.42,54.08L18.28,54.26L19.19,54.3L20.14,54.21L21.11,53.97L22.08,53.6L23.06,53.09L24.01,52.46L24.94,51.7L25.83,50.83L26.68,49.87L27.46,48.81L28.18,47.67L28.83,46.48L29.4,45.24L29.89,43.96L30.3,42.66L30.63,41.37L30.88,40.09L31.05,38.83L31.15,37.62L31.19,36.46L31.16,35.38L31.09,34.37L30.98,33.45L30.84,32.63L30.68,31.91L30.51,31.31L30.35,30.82L30.21,30.44L30.09,30.18L30.02,30.04L30,30L30.04,30.07L30.16,30.24L30.36,30.49L30.64,30.83L31.01,31.24L31.49,31.7L32.06,32.21L32.73,32.75L33.5,33.32L34.37,33.88L35.33,34.44L36.38,34.98L37.51,35.49L38.7,35.95L39.96,36.36L41.26,36.7L42.59,36.96L43.95,37.15L45.31,37.25L46.67,37.25L48,37.17L49.29,36.98L50.53,36.71L51.7,36.34L52.79,35.88L53.79,35.35L54.68,34.73L55.45,34.05L56.1,33.31L56.61,32.53L56.97,31.71L57.2,30.86L57.27,30" clip-path="url(#clip37f015polar-for-traces)" style="vector-effect: non-scaling-stroke; fill: none; stroke: rgb(213, 232, 245); stroke-opacity: 1; stroke-width: 2px; opacity: 1;"/></g><g class="points" clip-path="url(#clip37f015polar-for-traces)"/><g class="text" clip-path="url(#clip37f015polar-for-traces)"/></g><g class="trace scatter tracec46b23" style="stroke-miterlimit: 2; opacity: 1;"><g class="fills" clip-path="url(#clip37f015polar-for-traces)"/><g class="errorbars"/><g class="lines"/><g class="points"><path class="point" transform="translate(36.82,30)" d="M3,0A3,3 0 1,1 0,-3A3,3 0 0,1 3,0Z" style="opacity: 1; stroke-width: 1px; fill: rgb(155, 197, 82); fill-opacity: 1; stroke: rgb(232, 207, 47); stroke-opacity: 1;"/><path class="point" transform="translate(26.59,24.1)" d="M3,0A3,3 0 1,1 0,-3A3,3 0 0,1 3,0Z" style="opacity: 1; stroke-width: 1px; fill: rgb(155, 197, 82); fill-opacity: 1; stroke: rgb(232, 207, 47); stroke-opacity: 1;"/><path class="point" transform="translate(26.59,35.9)" d="M3,0A3,3 0 1,1 0,-3A3,3 0 0,1 3,0Z" style="opacity: 1; stroke-width: 1px; fill: rgb(155, 197, 82); fill-opacity: 1; stroke: rgb(232, 207, 47); stroke-opacity: 1;"/></g><g class="text"/></g></g></g></g></g><g class="smithlayer"/><g class="ternarylayer"/><g class="geolayer"/><g class="funnelarealayer"/><g class="pielayer"/><g class="iciclelayer"/><g class="treemaplayer"/><g class="sunburstlayer"/><g class="glimages"/><defs id="topdefs-37f015"><g class="clips"/></defs><g class="layer-above"><g class="imagelayer"/><g class="shapelayer"/></g><g class="infolayer"><g class="g-gtitle"/><g class="g-polartitle"/></g></svg>