<svg class="main-svg" xmlns="http://www.w3.org/2000/svg" xmlns:xlink="http://www.w3.org/1999/xlink" width="80" height="80" style="" viewBox="0 0 80 80"><rect x="0" y="0" width="80" height="80" style="fill: rgb(0, 0, 0); fill-opacity: 0;"/><defs id="defs-97ddf7"><g class="clips"><clipPath id="clip97ddf7polar-for-traces"><path d="M38,0A38,38 0,1,0 -38,-4.653657836759942e-15A38,38 0,1,0 38,9.307315673519884e-15Z" transform="translate(38,38)"/></clipPath></g><g class="gradients"/><g class="patterns"/></defs><g class="bglayer"/><g class="layer-below"><g class="imagelayer"/><g class="shapelayer"/></g><g class="cartesianlayer"/><g class="polarlayer"><g class="polar"><g class="polarsublayer draglayer"/><g class="polarsublayer plotbg"><path d="M38,0A38,38 0,1,0 -38,-4.653657836759942e-15A38,38 0,1,0 38,9.307315673519884e-15Z" transform="translate(40,40)" style="fill: rgb(0, 0, 0); fill-opacity: 0;"/></g><g class="polarsublayer backplot"><g class="maplayer"/></g><g class="polarsublayer angular-grid" style="fill: none;"/><g class="polarsublayer radial-grid" display="none" style="fill: none;"/><g class="polarsublayer angular-line"><path display="none" style="fill: none; stroke: rgb(0, 0, 0); stroke-opacity: 1;"/></g><g class="polarsublayer radial-line"><line display="none" style="fill: none; stroke: rgb(0, 0, 0); stroke-opacity: 1;"/></g><g class="polarsublayer angular-axis"/><g class="polarsublayer radial-axis" display="none"/><g class="polarsublayer frontplot" transform="translate(2,2)"><g class="barlayer"/><g class="scatterlayer"><g class="trace scatter tracec9f491" style="stroke-miterlimit: 2; opacity: 0.8;"><g class="fills" clip-path="url(#clip97ddf7polar-for-traces)"><g><path class="js-fill" d="M3.45,38L3.55,39.09L3.83,40.16L4.3,41.2L4.94,42.2L5.76,43.13L6.74,43.99L7.87,44.77L9.13,45.45L10.51,46.03L11.99,46.5L13.56,46.85L15.2,47.08L16.89,47.19L18.61,47.18L20.33,47.06L22.05,46.82L23.74,46.48L25.39,46.05L26.98,45.54L28.49,44.95L29.92,44.31L31.24,43.63L32.46,42.92L33.56,42.2L34.54,41.49L35.39,40.8L36.12,40.16L36.71,39.57L37.19,39.05L37.55,38.63L37.8,38.3L37.94,38.09L38,38L37.97,38.05L37.88,38.23L37.74,38.56L37.56,39.04L37.36,39.66L37.14,40.42L36.94,41.33L36.76,42.37L36.62,43.53L36.53,44.81L36.5,46.19L36.54,47.65L36.67,49.19L36.89,50.78L37.2,52.4L37.62,54.04L38.14,55.68L38.76,57.3L39.49,58.87L40.31,60.39L41.22,61.82L42.21,63.16L43.28,64.39L44.4,65.49L45.58,66.45L46.79,67.25L48.03,67.89L49.26,68.37L50.49,68.66L51.69,68.79L52.84,68.73L53.93,68.5L54.95,68.09L55.88,67.52L56.71,66.79L57.41,65.91L58,64.89L58.45,63.76L58.75,62.51L58.91,61.17L58.92,59.76L58.78,58.29L58.49,56.78L58.05,55.25L57.48,53.72L56.77,52.19L55.95,50.7L55.01,49.25L53.98,47.85L52.86,46.53L51.68,45.29L50.46,44.14L49.2,43.09L47.93,42.14L46.67,41.29L45.43,40.56L44.24,39.93L43.11,39.41L42.06,38.98L41.11,38.65L40.26,38.4L39.53,38.22L38.93,38.1L38.48,38.04L38.17,38.01L38.02,38L38.02,38L38.17,37.99L38.48,37.96L38.93,37.9L39.53,37.78L40.26,37.6L41.11,37.35L42.06,37.02L43.11,36.59L44.24,36.07L45.43,35.44L46.67,34.71L47.93,33.86L49.2,32.91L50.46,31.86L51.68,30.71L52.86,29.47L53.98,28.15L55.01,26.75L55.95,25.3L56.77,23.81L57.48,22.28L58.05,20.75L58.49,19.22L58.78,17.71L58.92,16.24L58.91,14.83L58.75,13.49L58.45,12.24L58,11.11L57.41,10.09L56.71,9.21L55.88,8.48L54.95,7.91L53.93,7.5L52.84,7.27L51.69,7.21L50.49,7.34L49.26,7.63L48.03,8.11L46.79,8.75L45.58,9.55L44.4,10.51L43.28,11.61L42.21,12.84L41.22,14.18L40.31,15.61L39.49,17.13L38.76,18.7L38.14,20.32L37.62,21.96L37.2,23.6L36.89,25.22L36.67,26.81L36.54,28.35L36.5,29.81L36.53,31.19L36.62,32.47L36.76,33.63L36.94,34.67L37.14,35.58L37.36,36.34L37.56,36.96L37.74,37.44L37.88,37.77L37.97,37.95L38,38L37.94,37.91L37.8,37.7L37.55,37.37L37.19,36.95L36.71,36.43L36.12,35.84L35.39,35.2L34.54,34.51L33.56,33.8L32.46,33.08L31.24,32.37L29.92,31.69L28.49,31.05L26.98,30.46L25.39,29.95L23.74,29.52L22.05,29.18L20.33,28.94L18.61,28.82L16.89,28.81L15.2,28.92L13.56,29.15L11.99,29.5L10.51,29.97L9.13,30.55L7.87,31.23L6.74,32.01L5.76,32.87L4.94,33.8L4.3,34.8L3.83,35.84L3.55,36.91L3.45,38Z" style="fill: rgb(38, 52, 115); fill-opacity: 1; stroke-width: 0;"/></g></g><g class="errorbars"/><g class="lines"><path class="js-line" d="M3.45,38L3.55,39.09L3.83,40.16L4.3,41.2L4.94,42.2L5.76,43.13L6.74,43.99L7.87,44.77L9.13,45.45L10.51,46.03L11.99,46.5L13.56,46.85L15.2,47.08L16.89,47.19L18.61,47.18L20.33,47.06L22.05,46.82L23.74,46.48L25.39,46.05L26.98,45.54L28.49,44.95L29.92,44.31L31.24,43.63L32.46,42.92L33.56,42.2L34.54,41.49L35.39,40.8L36.12,40.16L36.71,39.57L37.19,39.05L37.55,38.63L37.8,38.3L37.94,38.09L38,38L37.97,38.05L37.88,38.23L37.74,38.56L37.56,39.04L37.36,39.66L37.14,40.42L36.94,41.33L36.76,42.37L36.62,43.53L36.53,44.81L36.5,46.19L36.54,47.65L36.67,49.19L36.89,50.78L37.2,52.4L37.62,54.04L38.14,55.68L38.76,57.3L39.49,58.87L40.31,60.39L41.22,61.82L42.21,63.16L43.28,64.39L44.4,65.49L45.58,66.45L46.79,67.25L48.03,67.89L49.26,68.37L50.49,68.66L51.69,68.79L52.84,68.73L53.93,68.5L54.95,68.09L55.88,67.52L56.71,66.79L57.41,65.91L58,64.89L58.45,63.76L58.75,62.51L58.91,61.17L58.92,59.76L58.78,58.29L58.49,56.78L58.05,55.25L57.48,53.72L56.77,52.19L55.95,50.7L55.01,49.25L53.98,47.85L52.86,46.53L51.68,45.29L50.46,44.14L49.2,43.09L47.93,42.14L46.67,41.29L45.43,40.56L44.24,39.93L43.11,39.41L42.06,38.98L41.11,38.65L40.26,38.4L39.53,38.22L38.93,38.1L38.48,38.04L38.17,38.01L38.02,38L38.02,38L38.17,37.99L38.48,37.96L38.93,37.9L39.53,37.78L40.26,37.6L41.11,37.35L42.06,37.02L43.11,36.59L44.24,36.07L45.43,35.44L46.67,34.71L47.93,33.86L49.2,32.91L50.46,31.86L51.68,30.71L52.86,29.47L53.98,28.15L55.01,26.75L55.95,25.3L56.77,23.81L57.48,22.28L58.05,20.75L58.49,19.22L58.78,17.71L58.92,16.24L58.91,14.83L58.75,13.49L58.45,12.24L58,11.11L57.41,10.09L56.71,9.21L55.88,8.48L54.95,7.91L53.93,7.5L52.84,7.27L51.69,7.21L50.49,7.34L49.26,7.63L48.03,8.11L46.79,8.75L45.58,9.55L44.4,10.51L43.28,11.61L42.21,12.84L41.22,14.18L40.31,15.61L39.49,17.13L38.76,18.7L38.14,20.32L37.62,21.96L37.2,23.6L36.89,25.22L36.67,26.81L36.54,28.35L36.5,29.81L36.53,31.19L36.62,32.47L36.76,33.63L36.94,34.67L37.14,35.58L37.36,36.34L37.56,36.96L37.74,37.44L37.88,37.77L37.97,37.95L38,38L37.94,37.91L37.8,37.7L37.55,37.37L37.19,36.95L36.71,36.43L36.12,35.84L35.39,35.2L34.54,34.51L33.56,33.8L32.46,33.08L31.24,32.37L29.92,31.69L28.49,31.05L26.98,30.46L25.39,29.95L23.74,29.52L22.05,29.18L20.33,28.94L18.61,28.82L16.89,28.81L15.2,28.92L13.56,29.15L11.99,29.5L10.51,29.97L9.13,30.55L7.87,31.23L6.74,32.01L5.76,32.87L4.94,33.8L4.3,34.8L3.83,35.84L3.55,36.91L3.45,38" clip-path="url(#clip97ddf7polar-for-traces)" style="vector-effect: non-scaling-stroke; fill: none; stroke: rgb(213, 232, 245); stroke-opacity: 1; stroke-width: 2px; opacity: 1;"/></g><g class="points" clip-path="url(#clip97ddf7polar-for-traces)"/><g class="text" clip-path="url(#clip97ddf7polar-for-traces)"/></g><g class="trace scatter trace829983" style="stroke-miterlimit: 2; opacity: 0.8;"><g class="fills" clip-path="url(#clip97ddf7polar-for-traces)"><g><path class="js-fill" d="M72.55,38L72.45,36.91L72.17,35.84L71.7,34.8L71.06,33.8L70.24,32.87L69.26,32.01L68.13,31.23L66.87,30.55L65.49,29.97L64.01,29.5L62.44,29.15L60.8,28.92L59.11,28.81L57.39,28.82L55.67,28.94L53.95,29.18L52.26,29.52L50.61,29.95L49.02,30.46L47.51,31.05L46.08,31.69L44.76,32.37L43.54,33.08L42.44,33.8L41.46,34.51L40.61,35.2L39.88,35.84L39.29,36.43L38.81,36.95L38.45,37.37L38.2,37.7L38.06,37.91L38,38L38.03,37.95L38.12,37.77L38.26,37.44L38.44,36.96L38.64,36.34L38.86,35.58L39.06,34.67L39.24,33.63L39.38,32.47L39.47,31.19L39.5,29.81L39.46,28.35L39.33,26.81L39.11,25.22L38.8,23.6L38.38,21.96L37.86,20.32L37.24,18.7L36.51,17.13L35.69,15.61L34.78,14.18L33.79,12.84L32.72,11.61L31.6,10.51L30.42,9.55L29.21,8.75L27.97,8.11L26.74,7.63L25.51,7.34L24.31,7.21L23.16,7.27L22.07,7.5L21.05,7.91L20.12,8.48L19.29,9.21L18.59,10.09L18,11.11L17.55,12.24L17.25,13.49L17.09,14.83L17.08,16.24L17.22,17.71L17.51,19.22L17.95,20.75L18.52,22.28L19.23,23.81L20.05,25.3L20.99,26.75L22.02,28.15L23.14,29.47L24.32,30.71L25.54,31.86L26.8,32.91L28.07,33.86L29.33,34.71L30.57,35.44L31.76,36.07L32.89,36.59L33.94,37.02L34.89,37.35L35.74,37.6L36.47,37.78L37.07,37.9L37.52,37.96L37.83,37.99L37.98,38L37.98,38L37.83,38.01L37.52,38.04L37.07,38.1L36.47,38.22L35.74,38.4L34.89,38.65L33.94,38.98L32.89,39.41L31.76,39.93L30.57,40.56L29.33,41.29L28.07,42.14L26.8,43.09L25.54,44.14L24.32,45.29L23.14,46.53L22.02,47.85L20.99,49.25L20.05,50.7L19.23,52.19L18.52,53.72L17.95,55.25L17.51,56.78L17.22,58.29L17.08,59.76L17.09,61.17L17.25,62.51L17.55,63.76L18,64.89L18.59,65.91L19.29,66.79L20.12,67.52L21.05,68.09L22.07,68.5L23.16,68.73L24.31,68.79L25.51,68.66L26.74,68.37L27.97,67.89L29.21,67.25L30.42,66.45L31.6,65.49L32.72,64.39L33.79,63.16L34.78,61.82L35.69,60.39L36.51,58.87L37.24,57.3L37.86,55.68L38.38,54.04L38.8,52.4L39.11,50.78L39.33,49.19L39.46,47.65L39.5,46.19L39.47,44.81L39.38,43.53L39.24,42.37L39.06,41.33L38.86,40.42L38.64,39.66L38.44,39.04L38.26,38.56L38.12,38.23L38.03,38.05L38,38L38.06,38.09L38.2,38.3L38.45,38.63L38.81,39.05L39.29,39.57L39.88,40.16L40.61,40.8L41.46,41.49L42.44,42.2L43.54,42.92L44.76,43.63L46.08,44.31L47.51,44.95L49.02,45.54L50.61,46.05L52.26,46.48L53.95,46.82L55.67,47.06L57.39,47.18L59.11,47.19L60.8,47.08L62.44,46.85L64.01,46.5L65.49,46.03L66.87,45.45L68.13,44.77L69.26,43.99L70.24,43.13L71.06,42.2L71.7,41.2L72.17,40.16L72.45,39.09L72.55,38Z" style="fill: rgb(38, 52, 115); fill-opacity: 1; stroke-width: 0;"/></g></g><g class="errorbars"/><g class="lines"><path class="js-line" d="M72.55,38L72.45,36.91L72.17,35.84L71.7,34.8L71.06,33.8L70.24,32.87L69.26,32.01L68.13,31.23L66.87,30.55L65.49,29.97L64.01,29.5L62.44,29.15L60.8,28.92L59.11,28.81L57.39,28.82L55.67,28.94L53.95,29.18L52.26,29.52L50.61,29.95L49.02,30.46L47.51,31.05L46.08,31.69L44.76,32.37L43.54,33.08L42.44,33.8L41.46,34.51L40.61,35.2L39.88,35.84L39.29,36.43L38.81,36.95L38.45,37.37L38.2,37.7L38.06,37.91L38,38L38.03,37.95L38.12,37.77L38.26,37.44L38.44,36.96L38.64,36.34L38.86,35.58L39.06,34.67L39.24,33.63L39.38,32.47L39.47,31.19L39.5,29.81L39.46,28.35L39.33,26.81L39.11,25.22L38.8,23.6L38.38,21.96L37.86,20.32L37.24,18.7L36.51,17.13L35.69,15.61L34.78,14.18L33.79,12.84L32.72,11.61L31.6,10.51L30.42,9.55L29.21,8.75L27.97,8.11L26.74,7.63L25.51,7.34L24.31,7.21L23.16,7.27L22.07,7.5L21.05,7.91L20.12,8.48L19.29,9.21L18.59,10.09L18,11.11L17.55,12.24L17.25,13.49L17.09,14.83L17.08,16.24L17.22,17.71L17.51,19.22L17.95,20.75L18.52,22.28L19.23,23.81L20.05,25.3L20.99,26.75L22.02,28.15L23.14,29.47L24.32,30.71L25.54,31.86L26.8,32.91L28.07,33.86L29.33,34.71L30.57,35.44L31.76,36.07L32.89,36.59L33.94,37.02L34.89,37.35L35.74,37.6L36.47,37.78L37.07,37.9L37.52,37.96L37.83,37.99L37.98,38L37.98,38L37.83,38.01L37.52,38.04L37.07,38.1L36.47,38.22L35.74,38.4L34.89,38.65L33.94,38.98L32.89,39.41L31.76,39.93L30.57,40.56L29.33,41.29L28.07,42.14L26.8,43.09L25.54,44.14L24.32,45.29L23.14,46.53L22.02,47.85L20.99,49.25L20.05,50.7L19.23,52.19L18.52,53.72L17.95,55.25L17.51,56.78L17.22,58.29L17.08,59.76L17.09,61.17L17.25,62.51L17.55,63.76L18,64.89L18.59,65.91L19.29,66.79L20.12,67.52L21.05,68.09L22.07,68.5L23.16,68.73L24.31,68.79L25.51,68.66L26.74,68.37L27.97,67.89L29.21,67.25L30.42,66.45L31.6,65.49L32.72,64.39L33.79,63.16L34.78,61.82L35.69,60.39L36.51,58.87L37.24,57.3L37.86,55.68L38.38,54.04L38.8,52.4L39.11,50.78L39.33,49.19L39.46,47.65L39.5,46.19L39.47,44.81L39.38,43.53L39.24,42.37L39.06,41.33L38.86,40.42L38.64,39.66L38.44,39.04L38.26,38.56L38.12,38.23L38.03,38.05L38,38L38.06,38.09L38.2,38.3L38.45,38.63L38.81,39.05L39.29,39.57L39.88,40.16L40.61,40.8L41.46,41.49L42.44,42.2L43.54,42.92L44.76,43.63L46.08,44.31L47.51,44.95L49.02,45.54L50.61,46.05L52.26,46.48L53.95,46.82L55.67,47.06L57.39,47.18L59.11,47.19L60.8,47.08L62.44,46.85L64.01,46.5L65.49,46.03L66.87,45.45L68.13,44.77L69.26,43.99L70.24,43.13L71.06,42.2L71.7,41.2L72.17,40.16L72.45,39.09L72.55,38" clip-path="url(#clip97ddf7polar-for-traces)" style="vector-effect: non-scaling-stroke; fill: none; stroke: rgb(213, 232, 245); stroke-opacity: 1; stroke-width: 2px; opacity: 1;"/></g><g class="points" clip-path="url(#clip97ddf7polar-for-traces)"/><g class="text" clip-path="url(#clip97ddf7polar-for-traces)"/></g><g class="trace scatter trace5fa52c" style="stroke-miterlimit: 2; opacity: 1;"><g class="fills" clip-path="url(#clip97ddf7polar-for-traces)"/><g class="errorbars"/><g class="lines"/><g class="points"><path class="point" transform="translate(46.64,38)" d="M4,0A4,4 0 1,1 0,-4A4,4 0 0,1 4,0Z" style="opacity: 1; stroke-width: 1px; fill: rgb(155, 197, 82); fill-opacity: 1; stroke: rgb(232, 207, 47); stroke-opacity: 1;"/><path class="point" transform="translate(33.68,30.52)" d="M4,0A4,4 0 1,1 0,-4A4,4 0 0,1 4,0Z" style="opacity: 1; stroke-width: 1px; fill: rgb(155, 197, 82); fill-opacity: 1; stroke: rgb(232, 207, 47); stroke-opacity: 1;"/><path class="point" transform="translate(33.68,45.48)" d="M4,0A4,4 0 1,1 0,-4A4,4 0 0,1 4,0Z" style="opacity: 1; stroke-width: 1px; fill: rgb(155, 197, 82); fill-opacity: 1; stroke: rgb(232, 207, 47); stroke-opacity: 1;"/></g><g class="text"/></g></g></g></g></g><g class="smithlayer"/><g class="ternarylayer"/><g class="geolayer"/><g class="funnelarealayer"/><g class="pielayer"/><g class="iciclelayer"/><g class="treemaplayer"/><g class="sunburstlayer"/><g class="glimages"/><defs id="topdefs-97ddf7"><g class="clips"/></defs><g class="layer-above"><g class="imagelayer"/><g class="shapelayer"/></g><g class="infolayer"><g class="g-gtitle"/><g class="g-polartitle"/></g></svg>