<svg class="main-svg" xmlns="http://www.w3.org/2000/svg" xmlns:xlink="http://www.w3.org/1999/xlink" width="1024" height="1024" style="" viewBox="0 0 1024 1024"><rect x="0" y="0" width="1024" height="1024" style="fill: rgb(0, 0, 0); fill-opacity: 0;"/><defs id="defs-9973a6"><g class="clips"><clipPath id="clip9973a6polar-for-traces"><path d="M510,0A510,510 0,1,0 -510,-6.245698675651501e-14A510,510 0,1,0 510,1.2491397351303003e-13Z" transform="translate(510,510)"/></clipPath></g><g class="gradients"/><g class="patterns"/></defs><g class="bglayer"/><g class="layer-below"><g class="imagelayer"/><g class="shapelayer"/></g><g class="cartesianlayer"/><g class="polarlayer"><g class="polar"><g class="polarsublayer draglayer"/><g class="polarsublayer plotbg"><path d="M510,0A510,510 0,1,0 -510,-6.245698675651501e-14A510,510 0,1,0 510,1.2491397351303003e-13Z" transform="translate(512,512)" style="fill: rgb(0, 0, 0); fill-opacity: 0;"/></g><g class="polarsublayer backplot"><g class="maplayer"/></g><g class="polarsublayer angular-grid" style="fill: none;"><path class="angularaxisgrid" d="M512,512L1022,512" style="stroke: rgb(169, 169, 169); stroke-opacity: 1; stroke-width: 1px;"/><path class="angularaxisgrid" d="M512,512L872.6244584051392,151.3755415948608" style="stroke: rgb(169, 169, 169); stroke-opacity: 1; stroke-width: 1px;"/><path class="angularaxisgrid" d="M512,512L512,2" style="stroke: rgb(169, 169, 169); stroke-opacity: 1; stroke-width: 1px;"/><path class="angularaxisgrid" d="M512,512L151.3755415948608,151.37554159486075" style="stroke: rgb(169, 169, 169); stroke-opacity: 1; stroke-width: 1px;"/><path class="angularaxisgrid" d="M512,512L2,511.99999999999994" style="stroke: rgb(169, 169, 169); stroke-opacity: 1; stroke-width: 1px;"/><path class="angularaxisgrid" d="M512,512L151.3755415948607,872.6244584051392" style="stroke: rgb(169, 169, 169); stroke-opacity: 1; stroke-width: 1px;"/><path class="angularaxisgrid" d="M512,512L511.9999999999999,1022" style="stroke: rgb(169, 169, 169); stroke-opacity: 1; stroke-width: 1px;"/><path class="angularaxisgrid" d="M512,512L872.6244584051392,872.6244584051393" style="stroke: rgb(169, 169, 169); stroke-opacity: 1; stroke-width: 1px;"/></g><g class="polarsublayer radial-grid" transform="translate(512,512)" style="fill: none;"><path class="xgrid" d="M46.36,0A46.36,46.36 0,1,0 -46.36,-5.6774625608471294e-15A46.36,46.36 0,1,0 46.36,1.1354925121694259e-14Z" style="stroke: rgb(169, 169, 169); stroke-opacity: 1; stroke-width: 1px;"/><path class="xgrid" d="M92.73,0A92.73,92.73 0,1,0 -92.73,-1.1356149768493407e-14A92.73,92.73 0,1,0 92.73,2.2712299536986814e-14Z" style="stroke: rgb(169, 169, 169); stroke-opacity: 1; stroke-width: 1px;"/><path class="xgrid" d="M139.09,0A139.09,139.09 0,1,0 -139.09,-1.7033612329340537e-14A139.09,139.09 0,1,0 139.09,3.4067224658681073e-14Z" style="stroke: rgb(169, 169, 169); stroke-opacity: 1; stroke-width: 1px;"/><path class="xgrid" d="M185.45,0A185.45,185.45 0,1,0 -185.45,-2.2711074890187663e-14A185.45,185.45 0,1,0 185.45,4.5422149780375326e-14Z" style="stroke: rgb(169, 169, 169); stroke-opacity: 1; stroke-width: 1px;"/><path class="xgrid" d="M231.82,0A231.82,231.82 0,1,0 -231.82,-2.838976209783394e-14A231.82,231.82 0,1,0 231.82,5.677952419566788e-14Z" style="stroke: rgb(169, 169, 169); stroke-opacity: 1; stroke-width: 1px;"/><path class="xgrid" d="M278.18,0A278.18,278.18 0,1,0 -278.18,-3.4067224658681073e-14A278.18,278.18 0,1,0 278.18,6.813444931736215e-14Z" style="stroke: rgb(169, 169, 169); stroke-opacity: 1; stroke-width: 1px;"/><path class="xgrid" d="M324.55,0A324.55,324.55 0,1,0 -324.55,-3.974591186632735e-14A324.55,324.55 0,1,0 324.55,7.94918237326547e-14Z" style="stroke: rgb(169, 169, 169); stroke-opacity: 1; stroke-width: 1px;"/><path class="xgrid" d="M370.91,0A370.91,370.91 0,1,0 -370.91,-4.542337442717448e-14A370.91,370.91 0,1,0 370.91,9.084674885434896e-14Z" style="stroke: rgb(169, 169, 169); stroke-opacity: 1; stroke-width: 1px;"/><path class="xgrid" d="M417.27,0A417.27,417.27 0,1,0 -417.27,-5.1100836988021607e-14A417.27,417.27 0,1,0 417.27,1.0220167397604321e-13Z" style="stroke: rgb(169, 169, 169); stroke-opacity: 1; stroke-width: 1px;"/><path class="xgrid" d="M463.64,0A463.64,463.64 0,1,0 -463.64,-5.677952419566788e-14A463.64,463.64 0,1,0 463.64,1.1355904839133576e-13Z" style="stroke: rgb(169, 169, 169); stroke-opacity: 1; stroke-width: 1px;"/></g><g class="polarsublayer angular-line"><path d="M510,0A510,510 0,1,0 -510,-6.245698675651501e-14A510,510 0,1,0 510,1.2491397351303003e-13Z" transform="translate(512,512)" stroke-width="1" style="fill: none; stroke: rgb(169, 169, 169); stroke-opacity: 1;"/></g><g class="polarsublayer radial-line"><line x1="0" y1="0" x2="510" y2="0" transform="translate(512,512)" stroke-width="1" style="fill: none; stroke: rgb(169, 169, 169); stroke-opacity: 1;"/></g><g class="polarsublayer angular-axis"/><g class="polarsublayer radial-axis" display="none"/><g class="polarsublayer frontplot" transform="translate(2,2)"><g class="barlayer"/><g class="scatterlayer"><g class="trace scatter trace065081" style="stroke-miterlimit: 2; opacity: 0.8;"><g class="fills" clip-path="url(#clip9973a6polar-for-traces)"><g><path class="js-fill" d="M46.36,510L47.63,524.6L51.43,539L57.7,552.97L66.37,566.33L77.33,578.88L90.45,590.45L105.56,600.87L122.5,610.02L141.04,617.76L160.96,624.02L182.04,628.72L204.03,631.81L226.67,633.3L249.7,633.19L272.87,631.53L295.94,628.39L318.64,623.86L340.76,618.08L362.08,611.18L382.39,603.33L401.52,594.72L419.32,585.55L435.65,576.03L450.42,566.38L463.54,556.83L474.97,547.61L484.71,538.94L492.75,531.04L499.14,524.13L503.96,518.4L507.29,514.04L509.25,511.2L509.99,510.02L509.66,510.63L508.43,513.12L506.51,517.53L504.08,523.91L501.35,532.25L498.51,542.53L495.79,554.68L493.38,568.63L491.46,584.24L490.22,601.38L489.83,619.87L490.43,639.53L492.14,660.14L495.07,681.47L499.31,703.27L504.9,725.3L511.87,747.3L520.23,769L529.94,790.14L540.94,810.47L553.16,829.74L566.5,847.71L580.81,864.17L595.95,878.91L611.75,891.76L628.03,902.56L644.57,911.19L661.17,917.54L677.62,921.55L693.7,923.18L709.18,922.42L723.86,919.28L737.52,913.84L749.98,906.16L761.05,896.35L770.56,884.56L778.39,870.95L784.4,855.68L788.51,838.97L790.65,821.03L790.78,802.08L788.88,782.36L784.99,762.1L779.16,741.54L771.45,720.92L761.97,700.47L750.87,680.4L738.3,660.92L724.43,642.22L709.48,624.47L693.65,607.81L677.18,592.37L660.3,578.25L643.28,565.51L626.35,554.21L609.76,544.34L593.78,535.91L578.62,528.87L564.51,523.16L551.67,518.67L540.29,515.31L530.53,512.94L522.55,511.39L516.45,510.51L512.33,510.11L510.26,510L510.26,510L512.33,509.89L516.45,509.49L522.55,508.61L530.53,507.06L540.29,504.69L551.67,501.33L564.51,496.84L578.62,491.13L593.78,484.09L609.76,475.66L626.35,465.79L643.28,454.49L660.3,441.75L677.18,427.63L693.65,412.19L709.48,395.53L724.43,377.78L738.3,359.08L750.87,339.6L761.97,319.53L771.45,299.08L779.16,278.46L784.99,257.9L788.88,237.64L790.78,217.92L790.65,198.97L788.51,181.03L784.4,164.32L778.39,149.05L770.56,135.44L761.05,123.65L749.98,113.84L737.52,106.16L723.86,100.72L709.18,97.58L693.7,96.82L677.62,98.45L661.17,102.46L644.57,108.81L628.03,117.44L611.75,128.24L595.95,141.09L580.81,155.83L566.5,172.29L553.16,190.26L540.94,209.53L529.94,229.86L520.23,251L511.87,272.7L504.9,294.7L499.31,316.73L495.07,338.53L492.14,359.86L490.43,380.47L489.83,400.13L490.22,418.62L491.46,435.76L493.38,451.37L495.79,465.32L498.51,477.47L501.35,487.75L504.08,496.09L506.51,502.47L508.43,506.88L509.66,509.37L509.99,509.98L509.25,508.8L507.29,505.96L503.96,501.6L499.14,495.87L492.75,488.96L484.71,481.06L474.97,472.39L463.54,463.17L450.42,453.62L435.65,443.97L419.32,434.45L401.52,425.28L382.39,416.67L362.08,408.82L340.76,401.92L318.64,396.14L295.94,391.61L272.87,388.47L249.7,386.81L226.67,386.7L204.03,388.19L182.04,391.28L160.96,395.98L141.04,402.24L122.5,409.98L105.56,419.13L90.45,429.55L77.33,441.12L66.37,453.67L57.7,467.03L51.43,481L47.63,495.4L46.36,510Z" style="fill: rgb(213, 232, 245); fill-opacity: 1; stroke-width: 0;"/></g></g><g class="errorbars"/><g class="lines"><path class="js-line" d="M46.36,510L47.63,524.6L51.43,539L57.7,552.97L66.37,566.33L77.33,578.88L90.45,590.45L105.56,600.87L122.5,610.02L141.04,617.76L160.96,624.02L182.04,628.72L204.03,631.81L226.67,633.3L249.7,633.19L272.87,631.53L295.94,628.39L318.64,623.86L340.76,618.08L362.08,611.18L382.39,603.33L401.52,594.72L419.32,585.55L435.65,576.03L450.42,566.38L463.54,556.83L474.97,547.61L484.71,538.94L492.75,531.04L499.14,524.13L503.96,518.4L507.29,514.04L509.25,511.2L509.99,510.02L509.66,510.63L508.43,513.12L506.51,517.53L504.08,523.91L501.35,532.25L498.51,542.53L495.79,554.68L493.38,568.63L491.46,584.24L490.22,601.38L489.83,619.87L490.43,639.53L492.14,660.14L495.07,681.47L499.31,703.27L504.9,725.3L511.87,747.3L520.23,769L529.94,790.14L540.94,810.47L553.16,829.74L566.5,847.71L580.81,864.17L595.95,878.91L611.75,891.76L628.03,902.56L644.57,911.19L661.17,917.54L677.62,921.55L693.7,923.18L709.18,922.42L723.86,919.28L737.52,913.84L749.98,906.16L761.05,896.35L770.56,884.56L778.39,870.95L784.4,855.68L788.51,838.97L790.65,821.03L790.78,802.08L788.88,782.36L784.99,762.1L779.16,741.54L771.45,720.92L761.97,700.47L750.87,680.4L738.3,660.92L724.43,642.22L709.48,624.47L693.65,607.81L677.18,592.37L660.3,578.25L643.28,565.51L626.35,554.21L609.76,544.34L593.78,535.91L578.62,528.87L564.51,523.16L551.67,518.67L540.29,515.31L530.53,512.94L522.55,511.39L516.45,510.51L512.33,510.11L510.26,510L510.26,510L512.33,509.89L516.45,509.49L522.55,508.61L530.53,507.06L540.29,504.69L551.67,501.33L564.51,496.84L578.62,491.13L593.78,484.09L609.76,475.66L626.35,465.79L643.28,454.49L660.3,441.75L677.18,427.63L693.65,412.19L709.48,395.53L724.43,377.78L738.3,359.08L750.87,339.6L761.97,319.53L771.45,299.08L779.16,278.46L784.99,257.9L788.88,237.64L790.78,217.92L790.65,198.97L788.51,181.03L784.4,164.32L778.39,149.05L770.56,135.44L761.05,123.65L749.98,113.84L737.52,106.16L723.86,100.72L709.18,97.58L693.7,96.82L677.62,98.45L661.17,102.46L644.57,108.81L628.03,117.44L611.75,128.24L595.95,141.09L580.81,155.83L566.5,172.29L553.16,190.26L540.94,209.53L529.94,229.86L520.23,251L511.87,272.7L504.9,294.7L499.31,316.73L495.07,338.53L492.14,359.86L490.43,380.47L489.83,400.13L490.22,418.62L491.46,435.76L493.38,451.37L495.79,465.32L498.51,477.47L501.35,487.75L504.08,496.09L506.51,502.47L508.43,506.88L509.66,509.37L509.99,509.98L509.25,508.8L507.29,505.96L503.96,501.6L499.14,495.87L492.75,488.96L484.71,481.06L474.97,472.39L463.54,463.17L450.42,453.62L435.65,443.97L419.32,434.45L401.52,425.28L382.39,416.67L362.08,408.82L340.76,401.92L318.64,396.14L295.94,391.61L272.87,388.47L249.7,386.81L226.67,386.7L204.03,388.19L182.04,391.28L160.96,395.98L141.04,402.24L122.5,409.98L105.56,419.13L90.45,429.55L77.33,441.12L66.37,453.67L57.7,467.03L51.43,481L47.63,495.4L46.36,510" clip-path="url(#clip9973a6polar-for-traces)" style="vector-effect: non-scaling-stroke; fill: none; stroke: rgb(38, 52, 115); stroke-opacity: 1; stroke-width: 28px; opacity: 1;"/></g><g class="points" clip-path="url(#clip9973a6polar-for-traces)"/><g class="text" clip-path="url(#clip9973a6polar-for-traces)"/></g><g class="trace scatter tracee2ff3d" style="stroke-miterlimit: 2; opacity: 0.8;"><g class="fills" clip-path="url(#clip9973a6polar-for-traces)"><g><path class="js-fill" d="M973.64,510L972.37,495.4L968.57,481L962.3,467.03L953.63,453.67L942.67,441.12L929.55,429.55L914.44,419.13L897.5,409.98L878.96,402.24L859.04,395.98L837.96,391.28L815.97,388.19L793.33,386.7L770.3,386.81L747.13,388.47L724.06,391.61L701.36,396.14L679.24,401.92L657.92,408.82L637.61,416.67L618.48,425.28L600.68,434.45L584.35,443.97L569.58,453.62L556.46,463.17L545.03,472.39L535.29,481.06L527.25,488.96L520.86,495.87L516.04,501.6L512.71,505.96L510.75,508.8L510.01,509.98L510.34,509.37L511.57,506.88L513.49,502.47L515.92,496.09L518.65,487.75L521.49,477.47L524.21,465.32L526.62,451.37L528.54,435.76L529.78,418.62L530.17,400.13L529.57,380.47L527.86,359.86L524.93,338.53L520.69,316.73L515.1,294.7L508.13,272.7L499.77,251L490.06,229.86L479.06,209.53L466.84,190.26L453.5,172.29L439.19,155.83L424.05,141.09L408.25,128.24L391.97,117.44L375.43,108.81L358.83,102.46L342.38,98.45L326.3,96.82L310.82,97.58L296.14,100.72L282.48,106.16L270.02,113.84L258.95,123.65L249.44,135.44L241.61,149.05L235.6,164.32L231.49,181.03L229.35,198.97L229.22,217.92L231.12,237.64L235.01,257.9L240.84,278.46L248.55,299.08L258.03,319.53L269.13,339.6L281.7,359.08L295.57,377.78L310.52,395.53L326.35,412.19L342.82,427.63L359.7,441.75L376.72,454.49L393.65,465.79L410.24,475.66L426.22,484.09L441.38,491.13L455.49,496.84L468.33,501.33L479.71,504.69L489.47,507.06L497.45,508.61L503.55,509.49L507.67,509.89L509.74,510L509.74,510L507.67,510.11L503.55,510.51L497.45,511.39L489.47,512.94L479.71,515.31L468.33,518.67L455.49,523.16L441.38,528.87L426.22,535.91L410.24,544.34L393.65,554.21L376.72,565.51L359.7,578.25L342.82,592.37L326.35,607.81L310.52,624.47L295.57,642.22L281.7,660.92L269.13,680.4L258.03,700.47L248.55,720.92L240.84,741.54L235.01,762.1L231.12,782.36L229.22,802.08L229.35,821.03L231.49,838.97L235.6,855.68L241.61,870.95L249.44,884.56L258.95,896.35L270.02,906.16L282.48,913.84L296.14,919.28L310.82,922.42L326.3,923.18L342.38,921.55L358.83,917.54L375.43,911.19L391.97,902.56L408.25,891.76L424.05,878.91L439.19,864.17L453.5,847.71L466.84,829.74L479.06,810.47L490.06,790.14L499.77,769L508.13,747.3L515.1,725.3L520.69,703.27L524.93,681.47L527.86,660.14L529.57,639.53L530.17,619.87L529.78,601.38L528.54,584.24L526.62,568.63L524.21,554.68L521.49,542.53L518.65,532.25L515.92,523.91L513.49,517.53L511.57,513.12L510.34,510.63L510.01,510.02L510.75,511.2L512.71,514.04L516.04,518.4L520.86,524.13L527.25,531.04L535.29,538.94L545.03,547.61L556.46,556.83L569.58,566.38L584.35,576.03L600.68,585.55L618.48,594.72L637.61,603.33L657.92,611.18L679.24,618.08L701.36,623.86L724.06,628.39L747.13,631.53L770.3,633.19L793.33,633.3L815.97,631.81L837.96,628.72L859.04,624.02L878.96,617.76L897.5,610.02L914.44,600.87L929.55,590.45L942.67,578.88L953.63,566.33L962.3,552.97L968.57,539L972.37,524.6L973.64,510Z" style="fill: rgb(213, 232, 245); fill-opacity: 1; stroke-width: 0;"/></g></g><g class="errorbars"/><g class="lines"><path class="js-line" d="M973.64,510L972.37,495.4L968.57,481L962.3,467.03L953.63,453.67L942.67,441.12L929.55,429.55L914.44,419.13L897.5,409.98L878.96,402.24L859.04,395.98L837.96,391.28L815.97,388.19L793.33,386.7L770.3,386.81L747.13,388.47L724.06,391.61L701.36,396.14L679.24,401.92L657.92,408.82L637.61,416.67L618.48,425.28L600.68,434.45L584.35,443.97L569.58,453.62L556.46,463.17L545.03,472.39L535.29,481.06L527.25,488.96L520.86,495.87L516.04,501.6L512.71,505.96L510.75,508.8L510.01,509.98L510.34,509.37L511.57,506.88L513.49,502.47L515.92,496.09L518.65,487.75L521.49,477.47L524.21,465.32L526.62,451.37L528.54,435.76L529.78,418.62L530.17,400.13L529.57,380.47L527.86,359.86L524.93,338.53L520.69,316.73L515.1,294.7L508.13,272.7L499.77,251L490.06,229.86L479.06,209.53L466.84,190.26L453.5,172.29L439.19,155.83L424.05,141.09L408.25,128.24L391.97,117.44L375.43,108.81L358.83,102.46L342.38,98.45L326.3,96.82L310.82,97.58L296.14,100.72L282.48,106.16L270.02,113.84L258.95,123.65L249.44,135.44L241.61,149.05L235.6,164.32L231.49,181.03L229.35,198.97L229.22,217.92L231.12,237.64L235.01,257.9L240.84,278.46L248.55,299.08L258.03,319.53L269.13,339.6L281.7,359.08L295.57,377.78L310.52,395.53L326.35,412.19L342.82,427.63L359.7,441.75L376.72,454.49L393.65,465.79L410.24,475.66L426.22,484.09L441.38,491.13L455.49,496.84L468.33,501.33L479.71,504.69L489.47,507.06L497.45,508.61L503.55,509.49L507.67,509.89L509.74,510L509.74,510L507.67,510.11L503.55,510.51L497.45,511.39L489.47,512.94L479.71,515.31L468.33,518.67L455.49,523.16L441.38,528.87L426.22,535.91L410.24,544.34L393.65,554.21L376.72,565.51L359.7,578.25L342.82,592.37L326.35,607.81L310.52,624.47L295.57,642.22L281.7,660.92L269.13,680.4L258.03,700.47L248.55,720.92L240.84,741.54L235.01,762.1L231.12,782.36L229.22,802.08L229.35,821.03L231.49,838.97L235.6,855.68L241.61,870.95L249.44,884.56L258.95,896.35L270.02,906.16L282.48,913.84L296.14,919.28L310.82,922.42L326.3,923.18L342.38,921.55L358.83,917.54L375.43,911.19L391.97,902.56L408.25,891.76L424.05,878.91L439.19,864.17L453.5,847.71L466.84,829.74L479.06,810.47L490.06,790.14L499.77,769L508.13,747.3L515.1,725.3L520.69,703.27L524.93,681.47L527.86,660.14L529.57,639.53L530.17,619.87L529.78,601.38L528.54,584.24L526.62,568.63L524.21,554.68L521.49,542.53L518.65,532.25L515.92,523.91L513.49,517.53L511.57,513.12L510.34,510.63L510.01,510.02L510.75,511.2L512.71,514.04L516.04,518.4L520.86,524.13L527.25,531.04L535.29,538.94L545.03,547.61L556.46,556.83L569.58,566.38L584.35,576.03L600.68,585.55L618.48,594.72L637.61,603.33L657.92,611.18L679.24,618.08L701.36,623.86L724.06,628.39L747.13,631.53L770.3,633.19L793.33,633.3L815.97,631.81L837.96,628.72L859.04,624.02L878.96,617.76L897.5,610.02L914.44,600.87L929.55,590.45L942.67,578.88L953.63,566.33L962.3,552.97L968.57,539L972.37,524.6L973.64,510" clip-path="url(#clip9973a6polar-for-traces)" style="vector-effect: non-scaling-stroke; fill: none; stroke: rgb(38, 52, 115); stroke-opacity: 1; stroke-width: 28px; opacity: 1;"/></g><g class="points" clip-path="url(#clip9973a6polar-for-traces)"/><g class="text" clip-path="url(#clip9973a6polar-for-traces)"/></g><g class="trace scatter trace187a1d" style="stroke-miterlimit: 2; opacity: 1;"><g class="fills" clip-path="url(#clip9973a6polar-for-traces)"/><g class="errorbars"/><g class="lines"/><g class="points"><path class="point" transform="translate(625.91,510)" d="M51,0A51,51 0 1,1 0,-51A51,51 0 0,1 51,0Z" style="opacity: 1; stroke-width: 20px; fill: rgb(155, 197, 82); fill-opacity: 1; stroke: rgb(232, 207, 47); stroke-opacity: 1;"/><path class="point" transform="translate(452.05,409.62)" d="M51,0A51,51 0 1,1 0,-51A51,51 0 0,1 51,0Z" style="opacity: 1; stroke-width: 20px; fill: rgb(155, 197, 82); fill-opacity: 1; stroke: rgb(232, 207, 47); stroke-opacity: 1;"/><path class="point" transform="translate(452.05,610.38)" d="M51,0A51,51 0 1,1 0,-51A51,51 0 0,1 51,0Z" style="opacity: 1; stroke-width: 20px; fill: rgb(155, 197, 82); fill-opacity: 1; stroke: rgb(232, 207, 47); stroke-opacity: 1;"/></g><g class="text"/></g></g></g></g></g><g class="smithlayer"/><g class="ternarylayer"/><g class="geolayer"/><g class="funnelarealayer"/><g class="pielayer"/><g class="iciclelayer"/><g class="treemaplayer"/><g class="sunburstlayer"/><g class="glimages"/><defs id="topdefs-9973a6"><g class="clips"/></defs><g class="layer-above"><g class="imagelayer"/><g class="shapelayer"/></g><g class="infolayer"><g class="g-gtitle"/><g class="g-polartitle"/></g></svg>